<?xml version="1.0" encoding="utf-8"?>
<!-- Generator: Adobe Illustrator 16.0.3, SVG Export Plug-In . SVG Version: 6.00 Build 0)  -->
<!DOCTYPE svg PUBLIC "-//W3C//DTD SVG 1.1//EN" "http://www.w3.org/Graphics/SVG/1.1/DTD/svg11.dtd">
<svg version="1.1" id="Layer_1" xmlns="http://www.w3.org/2000/svg" xmlns:xlink="http://www.w3.org/1999/xlink" x="0px" y="0px"
	 width="64.25px" height="62.5px" viewBox="0 0 64.25 62.5" enable-background="new 0 0 64.25 62.5" xml:space="preserve">
<g id="logo" transform="translate(-10.032 -5.449)">
	<g id="Groupe_45" transform="translate(24.436 18.131)">
		<g id="Groupe_43" transform="translate(0)">
			<path id="Tracé_146" fill="#FFFFFF" d="M32.415,29.737c0.021,0.019,0.036,0.038,0.053,0.058
				c1.126-1.393,2.034-2.946,2.698-4.606c-0.076-0.021-0.149-0.056-0.212-0.104c-0.652,1.645-1.552,3.183-2.666,4.557
				C32.332,29.67,32.376,29.701,32.415,29.737z"/>
			<path id="Tracé_147" fill="#FFFFFF" d="M5.083,30.117c-2.278-2.632-3.729-5.877-4.169-9.33c-0.079,0.016-0.16,0.016-0.238,0
				c0.441,3.5,1.905,6.79,4.212,9.459C4.943,30.19,5.011,30.146,5.083,30.117z"/>
			<path id="Tracé_148" fill="#FFFFFF" d="M13.542,35.535c-2.624-0.759-5.035-2.116-7.045-3.962
				c-0.241-0.224-0.471-0.45-0.694-0.681c-0.036,0.072-0.084,0.139-0.142,0.195c0.219,0.226,0.443,0.443,0.679,0.656
				c2.033,1.874,4.473,3.247,7.128,4.016C13.475,35.679,13.501,35.603,13.542,35.535z"/>
			<path id="Tracé_149" fill="#FFFFFF" d="M35.151,11.813c-0.067,0.042-0.14,0.072-0.218,0.091c1.548,3.87,1.69,8.159,0.404,12.122
				c0.079,0.002,0.156,0.021,0.228,0.056C36.862,20.071,36.716,15.73,35.151,11.813z"/>
			<path id="Tracé_150" fill="#FFFFFF" d="M0.704,16.047c-0.019,0.149-0.037,0.298-0.055,0.45c0.078-0.019,0.159-0.019,0.236,0
				c0.018-0.144,0.036-0.286,0.054-0.428C0.862,16.08,0.78,16.073,0.704,16.047z"/>
			<path id="Tracé_151" fill="#FFFFFF" d="M1.49,12.727c-0.24,0.709-0.435,1.432-0.582,2.165c0.08,0,0.156,0.018,0.227,0.055
				c0.147-0.717,0.337-1.425,0.572-2.119C1.628,12.811,1.554,12.776,1.49,12.727z"/>
			<path id="Tracé_152" fill="#FFFFFF" d="M4.893,6.778c-1.258,1.453-2.274,3.1-3.007,4.876c0.081,0.006,0.159,0.031,0.228,0.073
				c0.724-1.754,1.726-3.38,2.968-4.814C5.009,6.882,4.944,6.837,4.893,6.778z"/>
			<path id="Tracé_153" fill="#FFFFFF" d="M23.934,1.402C19.269-0.073,14.204,0.409,9.9,2.737c0.045,0.068,0.072,0.148,0.079,0.229
				c4.247-2.313,9.252-2.799,13.868-1.348C23.861,1.541,23.89,1.467,23.934,1.402z"/>
			<path id="Tracé_154" fill="#FFFFFF" d="M0.558,17.63c-0.014,0.308-0.021,0.62-0.021,0.932c0.037-0.011,0.076-0.019,0.114-0.021
				c0.042,0.001,0.082,0.004,0.122,0.01c0-0.297,0.005-0.594,0.018-0.894C0.713,17.666,0.633,17.655,0.558,17.63z"/>
			<path id="Tracé_155" fill="#FFFFFF" d="M24.911,1.997c0.228,0.087,0.455,0.179,0.679,0.28c0.015-0.079,0.046-0.152,0.088-0.219
				c-0.224-0.097-0.453-0.195-0.68-0.281C24.984,1.856,24.953,1.93,24.911,1.997z"/>
			<path id="Tracé_156" fill="#FFFFFF" d="M30.555,31.76c-0.049-0.044-0.088-0.094-0.122-0.148
				c-3.314,3.021-7.651,4.672-12.135,4.618c0.012,0.079,0.006,0.158-0.019,0.235c4.548,0.061,8.95-1.612,12.313-4.676L30.555,31.76z
				"/>
		</g>
	</g>
	<g id="Groupe_48" transform="translate(23.185 16.666)">
		<g id="Groupe_46">
			<path id="Tracé_164" fill="#FFFFFF" d="M33.735,7.213c0.08-0.141,0.208-0.249,0.36-0.303c-0.176-0.194-0.355-0.379-0.537-0.569
				c-0.067,0.147-0.186,0.266-0.333,0.333C33.401,6.853,33.571,7.034,33.735,7.213z"/>
			<path id="Tracé_165" fill="#FFFFFF" d="M35.409,9.334c0.079-0.142,0.21-0.249,0.366-0.301c-0.313-0.458-0.647-0.905-1.002-1.34
				c-0.069,0.148-0.191,0.263-0.341,0.325C34.779,8.448,35.105,8.886,35.409,9.334z"/>
			<path id="Tracé_166" fill="#FFFFFF" d="M37.908,13.147c-0.414-1.112-0.931-2.184-1.543-3.2c-0.103,0.128-0.247,0.211-0.41,0.232
				c0.603,0.999,1.11,2.052,1.521,3.146C37.587,13.209,37.745,13.145,37.908,13.147z"/>
			<path id="Tracé_167" fill="#FFFFFF" d="M38.417,23.1c0.157-0.052,0.331-0.028,0.469,0.063c0.493-3.009,0.278-6.093-0.632-9.003
				c-0.114,0.114-0.274,0.177-0.437,0.168C38.694,17.165,38.901,20.168,38.417,23.1z"/>
			<path id="Tracé_168" fill="#FFFFFF" d="M3.072,10.238c-0.027-0.025-0.053-0.054-0.076-0.086
				c-1.117,1.901-1.899,3.982-2.313,6.148c0.165-0.013,0.328,0.045,0.448,0.156c0.402-2.136,1.168-4.188,2.267-6.063
				C3.275,10.379,3.16,10.324,3.072,10.238z"/>
			<path id="Tracé_169" fill="#FFFFFF" d="M6.773,6.171c-0.177,0.004-0.34-0.09-0.427-0.243c-0.309,0.293-0.608,0.6-0.9,0.917
				C4.764,7.588,4.139,8.381,3.579,9.219c0.11,0.018,0.212,0.069,0.29,0.148c0.039,0.035,0.073,0.074,0.103,0.117
				c0.544-0.821,1.153-1.597,1.82-2.322C6.107,6.819,6.437,6.486,6.773,6.171z"/>
			<path id="Tracé_170" fill="#FFFFFF" d="M18.67,0.606c-3.782,0.203-7.424,1.511-10.473,3.76c0.125,0.106,0.207,0.255,0.228,0.417
				c2.989-2.222,6.569-3.512,10.289-3.709C18.644,0.929,18.63,0.762,18.67,0.606z"/>
			<path id="Tracé_171" fill="#FFFFFF" d="M22.257,0.737C22.249,0.78,22.24,0.82,22.228,0.862c0.001,0.104,0.011,0.208,0.029,0.312
				c0,0.013,0,0.027,0,0.041c3.809,0.501,7.372,2.155,10.213,4.741c0.06-0.151,0.172-0.274,0.316-0.348
				C29.858,2.944,26.185,1.244,22.257,0.737z"/>
			<path id="Tracé_172" fill="#FFFFFF" d="M27.809,37.119c0.109,0.123,0.169,0.28,0.172,0.441c4.095-1.919,7.393-5.21,9.32-9.301
				c-0.101-0.025-0.192-0.074-0.267-0.147c-0.046-0.042-0.086-0.091-0.118-0.146C35.047,31.99,31.825,35.229,27.809,37.119
				L27.809,37.119z"/>
			<path id="Tracé_173" fill="#FFFFFF" d="M22.988,38.637c-4.044,0.7-8.205,0.074-11.863-1.786
				c-0.002,0.168-0.089,0.323-0.231,0.412c3.705,1.892,7.92,2.543,12.025,1.861C22.878,38.958,22.903,38.784,22.988,38.637z"/>
			<path id="Tracé_174" fill="#FFFFFF" d="M7.435,34.383c-0.171-0.146-0.343-0.298-0.513-0.45c-3.123-2.867-5.191-6.7-5.868-10.884
				c-0.156,0.056-0.329,0.048-0.48-0.023c0.678,4.326,2.804,8.292,6.031,11.25c0.163,0.153,0.328,0.296,0.495,0.44
				C7.169,34.569,7.288,34.451,7.435,34.383z"/>
		</g>
	</g>
	<g id="Groupe_51" transform="translate(21.378 15.61)">
		<g id="Groupe_49">
			<path id="Tracé_185" fill="#FFFFFF" d="M35.99,6.882c0.77,0.786,1.474,1.633,2.105,2.534c3.114,4.428,4.313,9.923,3.329,15.246
				c0.243-0.014,0.483,0.051,0.687,0.186c1.257-6.702-0.845-13.596-5.623-18.461C36.371,6.593,36.197,6.766,35.99,6.882z"/>
			<path id="Tracé_186" fill="#FFFFFF" d="M10.27,3.66c0.054,0.066,0.101,0.139,0.137,0.217c0.051,0.061,0.098,0.125,0.139,0.195
				c1.98-1.287,4.17-2.214,6.47-2.742c-0.11-0.213-0.161-0.451-0.147-0.689c-2.387,0.543-4.658,1.504-6.708,2.84l0,0
				C10.201,3.536,10.237,3.596,10.27,3.66z"/>
			<path id="Tracé_187" fill="#FFFFFF" d="M1.823,27.847c0.135-0.092,0.29-0.156,0.451-0.188c0.051-0.016,0.103-0.026,0.157-0.035
				c-2.731-7.966-0.251-16.792,6.23-22.169C8.564,5.36,8.485,5.251,8.425,5.13C8.356,5.05,8.3,4.963,8.256,4.867
				c-6.75,5.568-9.333,14.74-6.482,23.012C1.79,27.868,1.807,27.856,1.823,27.847z"/>
			<path id="Tracé_188" fill="#FFFFFF" d="M39.856,31.158c-0.126-0.042-0.244-0.107-0.347-0.188
				c-0.019-0.018-0.036-0.033-0.053-0.053c-0.072-0.033-0.144-0.075-0.208-0.125c-3.948,7.174-11.841,11.25-19.976,10.321
				c0.022,0.245-0.042,0.486-0.179,0.69C27.536,42.809,35.746,38.6,39.856,31.158z"/>
			<path id="Tracé_189" fill="#FFFFFF" d="M17.042,40.735c-4.474-1.014-8.468-3.525-11.323-7.115
				c-0.1,0.11-0.222,0.202-0.357,0.264c-0.07,0.054-0.146,0.1-0.226,0.138c2.964,3.748,7.124,6.365,11.788,7.412
				C16.881,41.193,16.924,40.945,17.042,40.735z"/>
			<path id="Tracé_190" fill="#FFFFFF" d="M27.45,0.968c-0.068,0.242-0.205,0.458-0.396,0.622c2.682,0.756,5.176,2.055,7.33,3.818
				c0.112-0.211,0.279-0.391,0.484-0.514C32.688,3.095,30.162,1.76,27.45,0.968z"/>
		</g>
	</g>
	<g id="Groupe_54" transform="translate(18.044 11.74)">
		<g id="Groupe_52" transform="translate(0)">
			<path id="Tracé_197" fill="#FFFFFF" d="M43.371,9.349c-0.055,0.06-0.113,0.114-0.176,0.166l0,0
				c-0.046,0.061-0.095,0.119-0.148,0.173c0.1,0.121,0.201,0.246,0.301,0.372c0.106-0.118,0.234-0.214,0.377-0.284
				C43.609,9.632,43.492,9.489,43.371,9.349z"/>
			<path id="Tracé_198" fill="#FFFFFF" d="M45.474,12.26c-0.143-0.229-0.284-0.456-0.433-0.679
				c-0.103,0.123-0.228,0.224-0.367,0.301c0.136,0.202,0.266,0.41,0.392,0.618C45.185,12.394,45.324,12.312,45.474,12.26z"/>
			<path id="Tracé_199" fill="#FFFFFF" d="M46.971,15.114c-0.13-0.301-0.271-0.6-0.416-0.894c-0.115,0.109-0.251,0.196-0.398,0.256
				c0.136,0.275,0.265,0.558,0.388,0.838C46.675,15.223,46.819,15.154,46.971,15.114z"/>
			<path id="Tracé_200" fill="#FFFFFF" d="M46.845,34.98c1.79-3.921,2.502-8.248,2.062-12.536
				c-0.144,0.072-0.302,0.112-0.464,0.115c0.424,4.192-0.279,8.421-2.034,12.251C46.566,34.833,46.715,34.892,46.845,34.98z"/>
			<path id="Tracé_201" fill="#FFFFFF" d="M45.43,36.849c-0.019-0.017-0.037-0.033-0.055-0.054
				c-0.489,0.845-1.031,1.66-1.624,2.435c0.14,0.076,0.263,0.178,0.367,0.298c0.599-0.784,1.146-1.605,1.644-2.459
				C45.639,37.014,45.527,36.941,45.43,36.849z"/>
			<path id="Tracé_202" fill="#FFFFFF" d="M2.234,17.96c0.95-3.119,2.538-6.006,4.662-8.479C6.739,9.439,6.595,9.359,6.474,9.252
				c-2.164,2.536-3.775,5.495-4.732,8.69C1.905,17.909,2.075,17.914,2.234,17.96z"/>
			<path id="Tracé_203" fill="#FFFFFF" d="M1.627,20.418c-0.046-0.012-0.092-0.027-0.137-0.046
				c-0.111,0.021-0.225,0.025-0.336,0.01c-0.875,4.635-0.386,9.424,1.409,13.784c0.124-0.101,0.266-0.178,0.419-0.224
				C1.226,29.662,0.756,24.962,1.627,20.418z"/>
			<path id="Tracé_204" fill="#FFFFFF" d="M29.925,1.285c-5.408-1.147-11.045-0.416-15.98,2.073
				c0.111,0.113,0.202,0.247,0.268,0.394c4.817-2.413,10.31-3.123,15.583-2.013C29.805,1.58,29.849,1.425,29.925,1.285z"/>
			<path id="Tracé_205" fill="#FFFFFF" d="M41.827,7.677c-0.194-0.193-0.394-0.382-0.598-0.569
				c-2.607-2.398-5.713-4.191-9.094-5.248c-0.009,0.064-0.023,0.127-0.045,0.188c-0.003,0.093-0.019,0.187-0.043,0.277
				c3.295,1.04,6.318,2.792,8.859,5.133c0.194,0.179,0.384,0.361,0.571,0.545C41.574,7.876,41.692,7.765,41.827,7.677z"/>
			<path id="Tracé_206" fill="#FFFFFF" d="M37.015,45.259c-4.294,2.549-9.281,3.681-14.254,3.235
				c0.034,0.156,0.038,0.313,0.01,0.471c5.102,0.447,10.215-0.734,14.604-3.371C37.233,45.508,37.112,45.394,37.015,45.259z"/>
			<path id="Tracé_207" fill="#FFFFFF" d="M20.329,48.628c0.016-0.155,0.065-0.31,0.145-0.447
				c-4.152-0.778-8.02-2.658-11.196-5.445c-0.082,0.138-0.186,0.26-0.312,0.357C12.192,45.921,16.115,47.833,20.329,48.628z"/>
			<path id="Tracé_208" fill="#FFFFFF" d="M48.573,20.201c-0.198-1.003-0.461-1.993-0.784-2.962
				c-0.128,0.091-0.275,0.154-0.431,0.186c0.307,0.935,0.557,1.887,0.75,2.851C48.255,20.217,48.414,20.191,48.573,20.201z"/>
		</g>
	</g>
	<g id="Groupe_55" transform="translate(12.769 5.78)">
		<path id="Tracé_220" fill="#FFFFFF" d="M43.347,56.629c-4.491,2.2-9.471,3.214-14.465,2.942c0.014,0.164-0.007,0.331-0.063,0.485
			c0.959,0.052,1.929,0.063,2.909,0.019c4.137-0.164,8.193-1.2,11.903-3.038C43.512,56.921,43.415,56.783,43.347,56.629z"/>
		<path id="Tracé_221" fill="#FFFFFF" d="M47.613,54.061c0.109,0.12,0.19,0.262,0.236,0.419c1.596-1.167,3.074-2.486,4.41-3.945
			c4.418-4.783,7.122-10.897,7.683-17.382c-0.091-0.021-0.181-0.051-0.266-0.09c-0.071-0.039-0.139-0.084-0.2-0.133
			C58.779,41.36,54.45,49.075,47.613,54.061z"/>
		<path id="Tracé_222" fill="#FFFFFF" d="M4.249,17.884c-0.105,0.013-0.211,0.018-0.317,0.016
			c-0.073-0.001-0.146-0.009-0.216-0.026c-2.05,4.335-3.012,9.106-2.799,13.897c0.045,1.005,0.136,1.999,0.275,2.984
			c0.157-0.047,0.324-0.055,0.485-0.021C0.84,28.985,1.735,23.119,4.249,17.884z"/>
		<path id="Tracé_223" fill="#FFFFFF" d="M11.535,8.413c2.976-2.557,6.444-4.48,10.189-5.65c-0.017-0.069-0.027-0.141-0.031-0.213
			c0-0.097-0.008-0.193-0.013-0.291c-3.805,1.182-7.33,3.125-10.358,5.713C11.422,8.103,11.494,8.253,11.535,8.413z"/>
		<path id="Tracé_224" fill="#FFFFFF" d="M29.566,1.436c2.841-0.089,5.683,0.238,8.432,0.97c0.026-0.163,0.081-0.32,0.162-0.464
			c-2.75-0.735-5.592-1.069-8.437-0.994C29.71,1.122,29.656,1.29,29.566,1.436z"/>
	</g>
	<g id="Groupe_56" transform="translate(10.032 5.449)">
		<path id="Tracé_225" fill="#FFFFFF" d="M45.229,61.073c0.065,0.154,0.102,0.318,0.107,0.485c4.642-1.834,8.803-4.7,12.17-8.381
			c2.37-2.571,4.313-5.503,5.766-8.682c-0.162-0.024-0.317-0.079-0.46-0.16C59.332,51.975,53.032,57.974,45.229,61.073z"/>
		<path id="Tracé_226" fill="#FFFFFF" d="M9.786,8.282c2.78-2.89,6.073-5.24,9.712-6.926c-0.119-0.117-0.213-0.256-0.28-0.409
			c-3.606,1.691-6.876,4.024-9.65,6.885C9.668,7.966,9.743,8.119,9.786,8.282z"/>
		<path id="Tracé_227" fill="#FFFFFF" d="M5.254,14.216c-0.06-0.019-0.118-0.043-0.173-0.072c-0.085-0.045-0.165-0.102-0.236-0.168
			c-1.811,3.027-3.119,6.329-3.874,9.775c0.172,0.095,0.316,0.235,0.417,0.405C2.119,20.652,3.424,17.293,5.254,14.216z"/>
	</g>
	<path id="Tracé_228" opacity="0.9" fill="#FFFFFF" enable-background="new    " d="M54.836,47.407
		c-5.994,6.526-16.143,6.959-22.67,0.965c-6.527-5.996-6.958-16.145-0.963-22.671c5.995-6.527,16.145-6.958,22.669-0.963
		c0.002,0,0.002,0.001,0.002,0.001c6.526,5.992,6.957,16.141,0.964,22.666C54.838,47.406,54.837,47.407,54.836,47.407z"/>
</g>
</svg>
