<?xml version="1.0" encoding="utf-8"?>
<!-- Generator: Adobe Illustrator 16.0.3, SVG Export Plug-In . SVG Version: 6.00 Build 0)  -->
<!DOCTYPE svg PUBLIC "-//W3C//DTD SVG 1.1//EN" "http://www.w3.org/Graphics/SVG/1.1/DTD/svg11.dtd">
<svg version="1.1" id="Layer_1" xmlns="http://www.w3.org/2000/svg" xmlns:xlink="http://www.w3.org/1999/xlink" x="0px" y="0px"
	 width="16px" height="16px" viewBox="0 0 16 16" enable-background="new 0 0 16 16" xml:space="preserve">
<g id="logo" transform="translate(-10.032 -5.449)">
	<g id="Groupe_45" transform="translate(24.436 18.131)">
		<g id="Groupe_43" transform="translate(0)">
			<path id="Tracé_146" d="M-2.763-1.914c0.005,0.002,0.009,0.008,0.014,0.012c0.279-0.344,0.503-0.729,0.668-1.139
				C-2.1-3.047-2.12-3.057-2.134-3.069C-2.297-2.661-2.519-2.282-2.796-1.94C-2.784-1.932-2.773-1.926-2.763-1.914z"/>
			<path id="Tracé_147" d="M-9.533-1.823c-0.564-0.652-0.924-1.455-1.032-2.311c-0.02,0.004-0.04,0.004-0.06,0
				c0.109,0.867,0.473,1.682,1.044,2.344C-9.568-1.805-9.55-1.817-9.533-1.823z"/>
			<path id="Tracé_148" d="M-7.438-0.481c-0.649-0.188-1.247-0.523-1.745-0.98c-0.059-0.057-0.116-0.111-0.172-0.168
				C-9.364-1.612-9.376-1.596-9.39-1.582c0.055,0.057,0.11,0.109,0.169,0.162c0.504,0.465,1.107,0.805,1.766,0.996
				C-7.454-0.444-7.448-0.463-7.438-0.481z"/>
			<path id="Tracé_149" d="M-2.086-6.356c-0.018,0.01-0.035,0.019-0.055,0.022c0.384,0.958,0.419,2.021,0.102,3.003
				c0.019,0,0.038,0.006,0.056,0.014C-1.662-4.31-1.698-5.385-2.086-6.356z"/>
			<path id="Tracé_150" d="M-10.617-5.307c-0.005,0.037-0.009,0.074-0.014,0.111c0.02-0.005,0.039-0.005,0.059,0
				c0.005-0.035,0.009-0.071,0.013-0.106C-10.579-5.299-10.598-5.3-10.617-5.307z"/>
			<path id="Tracé_151" d="M-10.423-6.129c-0.06,0.176-0.107,0.354-0.145,0.536c0.02,0,0.039,0.005,0.057,0.013
				c0.036-0.177,0.083-0.353,0.142-0.524C-10.388-6.109-10.407-6.118-10.423-6.129z"/>
			<path id="Tracé_152" d="M-9.58-7.603c-0.312,0.359-0.563,0.768-0.745,1.208c0.021,0.002,0.04,0.008,0.057,0.018
				c0.18-0.435,0.428-0.837,0.735-1.192C-9.55-7.577-9.567-7.588-9.58-7.603z"/>
			<path id="Tracé_153" d="M-4.864-8.934c-1.155-0.365-2.41-0.246-3.476,0.33c0.011,0.017,0.018,0.037,0.019,0.058
				C-7.269-9.12-6.029-9.24-4.885-8.881C-4.882-8.9-4.874-8.918-4.864-8.934z"/>
			<path id="Tracé_154" d="M-10.654-4.915c-0.003,0.076-0.005,0.153-0.005,0.232c0.01-0.003,0.019-0.006,0.028-0.006
				c0.011,0,0.021,0,0.03,0.003c0-0.075,0.001-0.148,0.004-0.223C-10.615-4.907-10.634-4.909-10.654-4.915z"/>
			<path id="Tracé_155" d="M-4.623-8.786c0.058,0.021,0.114,0.044,0.169,0.068c0.004-0.019,0.012-0.037,0.021-0.054
				C-4.488-8.796-4.544-8.82-4.6-8.841C-4.603-8.822-4.611-8.803-4.623-8.786z"/>
			<path id="Tracé_156" d="M-3.224-1.414c-0.012-0.012-0.021-0.023-0.03-0.037c-0.82,0.748-1.895,1.156-3.005,1.143
				c0.003,0.02,0.001,0.041-0.005,0.059c1.127,0.016,2.217-0.398,3.049-1.158L-3.224-1.414z"/>
		</g>
	</g>
	<g id="Groupe_48" transform="translate(23.185 16.666)">
		<g id="Groupe_46">
			<path id="Tracé_164" d="M-1.496-6.394c0.021-0.034,0.053-0.061,0.091-0.074c-0.044-0.048-0.09-0.094-0.134-0.141
				c-0.018,0.036-0.047,0.065-0.083,0.082C-1.578-6.482-1.536-6.437-1.496-6.394z"/>
			<path id="Tracé_165" d="M-1.081-5.867c0.02-0.035,0.052-0.062,0.091-0.074c-0.077-0.114-0.161-0.225-0.249-0.332
				c-0.018,0.036-0.047,0.064-0.085,0.08C-1.237-6.087-1.157-5.979-1.081-5.867z"/>
			<path id="Tracé_166" d="M-0.462-4.923c-0.103-0.275-0.231-0.541-0.382-0.793C-0.87-5.684-0.905-5.663-0.946-5.658
				c0.149,0.247,0.275,0.509,0.377,0.779C-0.541-4.907-0.502-4.924-0.462-4.923z"/>
			<path id="Tracé_167" d="M-0.336-2.457c0.039-0.014,0.081-0.008,0.116,0.014c0.122-0.744,0.069-1.508-0.156-2.229
				c-0.029,0.028-0.068,0.044-0.108,0.041C-0.267-3.929-0.216-3.185-0.336-2.457z"/>
			<path id="Tracé_168" d="M-9.09-5.644c-0.007-0.007-0.014-0.014-0.02-0.021c-0.276,0.471-0.47,0.986-0.572,1.522
				C-9.64-4.146-9.6-4.131-9.57-4.104c0.099-0.529,0.289-1.037,0.562-1.502C-9.04-5.609-9.068-5.622-9.09-5.644z"/>
			<path id="Tracé_169" d="M-8.173-6.651C-8.216-6.65-8.257-6.673-8.279-6.711c-0.076,0.073-0.15,0.148-0.223,0.228
				C-8.671-6.3-8.825-6.104-8.964-5.896c0.026,0.004,0.052,0.017,0.071,0.036c0.01,0.009,0.019,0.019,0.025,0.028
				c0.135-0.203,0.286-0.395,0.45-0.574C-8.338-6.49-8.256-6.573-8.173-6.651z"/>
			<path id="Tracé_170" d="M-5.226-8.029C-6.164-7.979-7.065-7.655-7.82-7.098c0.03,0.026,0.051,0.063,0.057,0.104
				c0.74-0.551,1.626-0.87,2.548-0.919C-5.233-7.949-5.237-7.99-5.226-8.029z"/>
			<path id="Tracé_171" d="M-4.339-7.996c-0.001,0.01-0.004,0.021-0.007,0.03c0,0.025,0.003,0.052,0.007,0.077
				c0,0.004,0,0.007,0,0.01c0.943,0.125,1.826,0.534,2.529,1.175C-1.795-6.741-1.765-6.773-1.73-6.79
				C-2.456-7.45-3.366-7.871-4.339-7.996z"/>
			<path id="Tracé_172" d="M-2.964,1.013c0.028,0.031,0.043,0.068,0.043,0.109C-1.906,0.648-1.09-0.166-0.613-1.18
				c-0.024-0.006-0.047-0.02-0.065-0.037c-0.012-0.01-0.021-0.021-0.029-0.035C-1.17-0.258-1.968,0.547-2.964,1.013L-2.964,1.013z"
				/>
			<path id="Tracé_173" d="M-4.157,1.39c-1.002,0.172-2.032,0.018-2.938-0.441C-7.096,0.99-7.117,1.027-7.152,1.051
				C-6.235,1.519-5.191,1.68-4.174,1.51C-4.185,1.469-4.177,1.426-4.157,1.39z"/>
			<path id="Tracé_174" d="M-8.008,0.336c-0.043-0.035-0.085-0.072-0.128-0.109C-8.91-0.485-9.422-1.436-9.59-2.471
				c-0.039,0.014-0.082,0.012-0.119-0.006c0.168,1.072,0.695,2.055,1.494,2.787c0.04,0.037,0.081,0.072,0.122,0.107
				C-8.075,0.383-8.046,0.353-8.008,0.336z"/>
		</g>
	</g>
	<g id="Groupe_51" transform="translate(21.378 15.61)">
		<g id="Groupe_49">
			<path id="Tracé_185" d="M0.423-5.68c0.191,0.194,0.365,0.404,0.521,0.628c0.771,1.097,1.068,2.457,0.824,3.776
				C1.83-1.28,1.887-1.264,1.939-1.231C2.249-2.89,1.73-4.598,0.547-5.804C0.517-5.752,0.473-5.71,0.423-5.68z"/>
			<path id="Tracé_186" d="M-5.948-6.478c0.014,0.017,0.025,0.034,0.034,0.054C-5.902-6.41-5.89-6.393-5.879-6.377
				c0.49-0.318,1.032-0.548,1.603-0.679c-0.027-0.053-0.039-0.111-0.037-0.171c-0.591,0.135-1.153,0.373-1.66,0.703l0,0
				C-5.965-6.509-5.956-6.494-5.948-6.478z"/>
			<path id="Tracé_187" d="M-8.039-0.489c0.033-0.021,0.071-0.037,0.111-0.047c0.013-0.002,0.025-0.006,0.039-0.006
				c-0.677-1.975-0.063-4.16,1.543-5.492C-6.37-6.057-6.39-6.084-6.405-6.115c-0.017-0.019-0.03-0.041-0.041-0.064
				c-1.673,1.379-2.313,3.65-1.605,5.7C-8.048-0.483-8.043-0.485-8.039-0.489z"/>
			<path id="Tracé_188" d="M1.381,0.333C1.349,0.321,1.32,0.306,1.294,0.286C1.29,0.28,1.285,0.279,1.281,0.273
				c-0.018-0.01-0.035-0.018-0.052-0.031C0.253,2.019-1.703,3.029-3.718,2.798c0.006,0.061-0.01,0.121-0.045,0.172
				C-1.671,3.218,0.362,2.175,1.381,0.333z"/>
			<path id="Tracé_189" d="M-4.27,2.704c-1.108-0.25-2.098-0.873-2.805-1.762c-0.024,0.025-0.055,0.049-0.088,0.064
				C-7.18,1.021-7.199,1.032-7.219,1.042c0.734,0.928,1.765,1.576,2.92,1.834C-4.311,2.818-4.299,2.757-4.27,2.704z"/>
			<path id="Tracé_190" d="M-1.692-7.145c-0.018,0.06-0.051,0.113-0.098,0.154c0.664,0.188,1.281,0.509,1.815,0.945
				c0.026-0.052,0.068-0.097,0.119-0.127C-0.396-6.618-1.02-6.949-1.692-7.145z"/>
		</g>
	</g>
	<g id="Groupe_54" transform="translate(18.044 11.74)">
		<g id="Groupe_52" transform="translate(0)">
			<path id="Tracé_197" d="M4.759-2.158C4.745-2.143,4.73-2.13,4.716-2.117l0,0C4.704-2.102,4.692-2.088,4.679-2.073
				c0.024,0.029,0.05,0.061,0.074,0.091c0.025-0.028,0.058-0.053,0.093-0.07C4.818-2.088,4.789-2.123,4.759-2.158z"/>
			<path id="Tracé_198" d="M5.28-1.437C5.245-1.494,5.209-1.55,5.173-1.605C5.147-1.575,5.117-1.55,5.082-1.531
				C5.115-1.48,5.147-1.43,5.179-1.377C5.209-1.403,5.242-1.424,5.28-1.437z"/>
			<path id="Tracé_199" d="M5.65-0.73C5.618-0.805,5.583-0.879,5.548-0.952c-0.028,0.027-0.063,0.05-0.099,0.064
				C5.482-0.82,5.514-0.75,5.546-0.681C5.577-0.703,5.612-0.72,5.65-0.73z"/>
			<path id="Tracé_200" d="M5.62,4.191c0.443-0.973,0.619-2.045,0.511-3.106C6.095,1.103,6.055,1.113,6.014,1.114
				C6.12,2.152,5.946,3.199,5.511,4.148C5.551,4.154,5.588,4.168,5.62,4.191z"/>
			<path id="Tracé_201" d="M5.268,4.654c-0.004-0.006-0.009-0.01-0.013-0.016C5.134,4.85,5,5.053,4.853,5.242
				c0.035,0.02,0.064,0.043,0.091,0.074C5.092,5.123,5.227,4.918,5.35,4.707C5.321,4.693,5.294,4.676,5.268,4.654z"/>
			<path id="Tracé_202" d="M-5.429-0.025c0.234-0.772,0.628-1.487,1.154-2.101c-0.039-0.01-0.075-0.029-0.104-0.056
				c-0.536,0.628-0.936,1.36-1.172,2.151C-5.511-0.038-5.469-0.037-5.429-0.025z"/>
			<path id="Tracé_203" d="M-5.58,0.584c-0.011-0.003-0.022-0.007-0.033-0.012c-0.027,0.006-0.056,0.006-0.083,0.003
				c-0.217,1.147-0.096,2.333,0.349,3.413c0.03-0.025,0.065-0.043,0.104-0.055C-5.679,2.873-5.795,1.709-5.58,0.584z"/>
			<path id="Tracé_204" d="M1.428-4.155C0.09-4.439-1.307-4.259-2.53-3.642c0.027,0.027,0.05,0.062,0.066,0.097
				c1.192-0.598,2.553-0.772,3.859-0.498C1.399-4.082,1.41-4.12,1.428-4.155z"/>
			<path id="Tracé_205" d="M4.377-2.571C4.328-2.62,4.28-2.667,4.228-2.713c-0.646-0.594-1.414-1.038-2.252-1.3
				C1.974-3.996,1.97-3.981,1.966-3.966C1.965-3.943,1.962-3.92,1.954-3.897C2.77-3.64,3.519-3.206,4.148-2.626
				C4.196-2.581,4.243-2.537,4.29-2.491C4.313-2.522,4.342-2.551,4.377-2.571z"/>
			<path id="Tracé_206" d="M3.185,6.736c-1.064,0.631-2.299,0.91-3.531,0.801c0.009,0.039,0.01,0.078,0.003,0.115
				c1.265,0.111,2.529-0.182,3.616-0.834C3.238,6.799,3.209,6.77,3.185,6.736z"/>
			<path id="Tracé_207" d="M-0.948,7.57c0.003-0.037,0.016-0.076,0.035-0.111c-1.028-0.191-1.985-0.658-2.772-1.348
				c-0.021,0.035-0.046,0.064-0.077,0.088C-2.963,6.9-1.991,7.373-0.948,7.57z"/>
			<path id="Tracé_208" d="M6.047,0.53C5.999,0.281,5.932,0.036,5.854-0.203C5.822-0.181,5.785-0.165,5.746-0.157
				C5.822,0.074,5.884,0.31,5.932,0.549C5.967,0.534,6.008,0.527,6.047,0.53z"/>
		</g>
	</g>
	<g id="Groupe_55" transform="translate(12.769 5.78)">
		<path id="Tracé_220" d="M8.721,14.038c-1.111,0.543-2.345,0.793-3.582,0.727c0.004,0.041-0.002,0.082-0.016,0.121
			c0.237,0.012,0.478,0.014,0.721,0.004c1.025-0.041,2.028-0.297,2.947-0.754C8.762,14.107,8.739,14.075,8.721,14.038z"/>
		<path id="Tracé_221" d="M9.779,13.4c0.026,0.029,0.047,0.066,0.059,0.105c0.395-0.289,0.761-0.617,1.091-0.977
			c1.095-1.186,1.765-2.701,1.903-4.307c-0.021-0.006-0.044-0.012-0.065-0.023c-0.018-0.01-0.035-0.02-0.05-0.031
			C12.543,10.255,11.471,12.165,9.779,13.4z"/>
		<path id="Tracé_222" d="M-0.962,4.441C-0.988,4.443-1.014,4.444-1.04,4.443c-0.019,0-0.037-0.002-0.055-0.006
			c-0.507,1.073-0.745,2.255-0.692,3.44c0.011,0.249,0.034,0.496,0.068,0.74c0.038-0.012,0.08-0.014,0.12-0.006
			C-1.806,7.19-1.585,5.736-0.962,4.441z"/>
		<path id="Tracé_223" d="M0.843,2.095c0.737-0.634,1.596-1.11,2.523-1.4C3.362,0.678,3.36,0.66,3.359,0.642
			c0-0.024-0.002-0.048-0.004-0.071C2.413,0.862,1.539,1.344,0.79,1.984C0.814,2.018,0.832,2.055,0.843,2.095z"/>
		<path id="Tracé_224" d="M5.308,0.366c0.704-0.022,1.407,0.059,2.089,0.24c0.006-0.04,0.021-0.079,0.04-0.114
			C6.756,0.31,6.053,0.227,5.348,0.245C5.344,0.288,5.33,0.33,5.308,0.366z"/>
	</g>
	<g id="Groupe_56" transform="translate(10.032 5.449)">
		<path id="Tracé_225" d="M11.247,15.387c0.017,0.037,0.025,0.078,0.026,0.119c1.15-0.455,2.18-1.164,3.014-2.076
			c0.587-0.635,1.067-1.361,1.428-2.15c-0.039-0.006-0.077-0.018-0.114-0.039C14.739,13.133,13.18,14.619,11.247,15.387z"/>
		<path id="Tracé_226" d="M2.469,2.311c0.688-0.715,1.504-1.298,2.405-1.715C4.845,0.566,4.821,0.532,4.805,0.494
			C3.912,0.913,3.102,1.49,2.415,2.199C2.439,2.232,2.458,2.271,2.469,2.311z"/>
		<path id="Tracé_227" d="M1.346,3.78C1.331,3.775,1.316,3.77,1.303,3.763c-0.021-0.012-0.04-0.025-0.058-0.042
			c-0.449,0.75-0.772,1.567-0.96,2.421C0.328,6.166,0.363,6.2,0.389,6.242C0.57,5.374,0.894,4.542,1.346,3.78z"/>
	</g>
	<path id="Tracé_228" opacity="0.9" enable-background="new    " d="M21.174,16.101c-1.484,1.615-3.998,1.723-5.615,0.238
		c-1.616-1.484-1.723-3.999-0.238-5.615c1.485-1.617,3.999-1.724,5.614-0.239c0.001,0,0.001,0.001,0.001,0.001
		c1.617,1.484,1.724,3.998,0.238,5.613V16.101z"/>
</g>
</svg>
