<svg xmlns="http://www.w3.org/2000/svg" width="42.203" height="27.649" viewBox="0 0 42.203 27.649">
  <g id="DZ" transform="translate(0)">
    <path id="Tracé_133" data-name="Tracé 133" d="M996.936,40.149H976.563a.728.728,0,0,1-.728-.728V13.228a.728.728,0,0,1,.728-.728h20.374V40.149Z" transform="translate(-975.835 -12.5)" fill="#73af00"/>
    <path id="Tracé_134" data-name="Tracé 134" d="M994.914,12.5h20.374a.728.728,0,0,1,.728.728V39.422a.728.728,0,0,1-.728.728H994.914Z" transform="translate(-973.813 -12.5)" fill="#f5f5f5"/>
    <g id="Groupe_40" data-name="Groupe 40" transform="translate(14.608 7.581)">
      <path id="Tracé_135" data-name="Tracé 135" d="M998.421,22.613l-1.262,1.65-1.97-.659a.121.121,0,0,0-.138.184l1.179,1.71-1.235,1.669a.121.121,0,0,0,.132.188l1.991-.594,1.207,1.692a.121.121,0,0,0,.219-.067l.051-2.077,1.981-.624a.121.121,0,0,0,0-.23l-1.959-.689.018-2.078A.12.12,0,0,0,998.421,22.613Z" transform="translate(-988.415 -19.014)" fill="#ff4b55"/>
      <path id="Tracé_136" data-name="Tracé 136" d="M996.845,30.6a5,5,0,0,1,0-10,4.909,4.909,0,0,1,2.761.849.121.121,0,0,0,.157-.181,6.192,6.192,0,0,0-4.7-1.91,6.244,6.244,0,0,0,.217,12.483,6.2,6.2,0,0,0,4.484-1.918.12.12,0,0,0-.157-.179A4.908,4.908,0,0,1,996.845,30.6Z" transform="translate(-989.043 -19.355)" fill="#ff4b55"/>
    </g>
  </g>
</svg>
