<svg xmlns="http://www.w3.org/2000/svg" width="42.202" height="27.65" viewBox="0 0 42.202 27.65">
  <g id="EN" transform="translate(0)">
    <g id="Tracé_137" data-name="Tracé 137" transform="translate(-975.835 -12.5)" fill="#41479b">
      <path d="M 1017.308898925781 39.65049362182617 L 976.5616455078125 39.65049362182617 C 976.4366455078125 39.65049362182617 976.3348999023438 39.54783630371094 976.3348999023438 39.42164611816406 L 976.3348999023438 13.22873497009277 C 976.3348999023438 13.10316467285156 976.4366455078125 13.00100421905518 976.5616455078125 13.00100421905518 L 1017.31005859375 13.00100421905518 C 1017.434997558594 13.00100421905518 1017.536682128906 13.10316467285156 1017.536682128906 13.22873497009277 L 1017.536682128906 39.42164611816406 C 1017.536682128906 39.54783630371094 1017.434509277344 39.65049362182617 1017.308898925781 39.65049362182617 Z" stroke="none"/>
      <path d="M 1017.036682128906 39.15049362182617 L 1017.036682128906 13.50100421905518 L 976.8348999023438 13.50100421905518 L 976.8348999023438 39.15049362182617 L 1017.036682128906 39.15049362182617 M 1017.308898925781 40.15049362182617 L 976.5616455078125 40.15049362182617 C 976.1600952148438 40.15049362182617 975.8348999023438 39.82422637939453 975.8348999023438 39.42164611816406 L 975.8348999023438 13.22873497009277 C 975.8348999023438 12.8261547088623 976.1600952148438 12.50100421905518 976.5616455078125 12.50100421905518 L 1017.31005859375 12.50100421905518 C 1017.711486816406 12.50100421905518 1018.036682128906 12.8261547088623 1018.036682128906 13.22873497009277 L 1018.036682128906 39.42164611816406 C 1018.036682128906 39.82422637939453 1017.71044921875 40.15049362182617 1017.308898925781 40.15049362182617 Z" stroke="none" fill="#707070"/>
    </g>
    <g id="Tracé_138" data-name="Tracé 138" transform="translate(-975.835 -12.5)" fill="#f5f5f5">
      <path d="M 1017.31005859375 39.65049362182617 L 1014.204284667969 39.65049362182617 L 1000.847961425781 30.89990425109863 L 1000.073974609375 30.39279556274414 L 1000.073974609375 31.31813430786133 L 1000.073974609375 39.65049362182617 L 993.797607421875 39.65049362182617 L 993.797607421875 31.31813430786133 L 993.797607421875 30.39279556274414 L 993.0236206054688 30.89990425109863 L 979.6673583984375 39.65049362182617 L 976.5616455078125 39.65049362182617 C 976.4366455078125 39.65049362182617 976.3348999023438 39.54783630371094 976.3348999023438 39.42164611816406 L 976.3348999023438 37.81053161621094 L 987.6734008789063 30.38153457641602 L 989.0748291015625 29.46331405639648 L 987.3993530273438 29.46331405639648 L 976.3348999023438 29.46331405639648 L 976.3348999023438 23.18706512451172 L 987.3993530273438 23.18706512451172 L 989.0748291015625 23.18706512451172 L 987.6734008789063 22.26884460449219 L 976.3348999023438 14.83984756469727 L 976.3348999023438 13.22873497009277 C 976.3348999023438 13.10316467285156 976.4366455078125 13.00100421905518 976.5616455078125 13.00100421905518 L 979.6673583984375 13.00100421905518 L 993.0236206054688 21.7504940032959 L 993.797607421875 22.25751495361328 L 993.797607421875 21.33224487304688 L 993.797607421875 13.00100421905518 L 1000.073974609375 13.00100421905518 L 1000.073974609375 21.33224487304688 L 1000.073974609375 22.25756454467773 L 1000.847961425781 21.75048446655273 L 1014.203125 13.00100421905518 L 1017.308898925781 13.00100421905518 C 1017.434509277344 13.00100421905518 1017.536682128906 13.10316467285156 1017.536682128906 13.22873497009277 L 1017.536682128906 14.83982753753662 L 1006.197204589844 22.26882553100586 L 1004.795593261719 23.18706512451172 L 1006.47119140625 23.18706512451172 L 1017.536682128906 23.18706512451172 L 1017.536682128906 29.46331405639648 L 1006.472351074219 29.46331405639648 L 1004.796936035156 29.46331405639648 L 1006.198303222656 30.38153457641602 L 1017.536682128906 37.81053161621094 L 1017.536682128906 39.42164611816406 C 1017.536682128906 39.54783630371094 1017.434997558594 39.65049362182617 1017.31005859375 39.65049362182617 Z" stroke="none"/>
      <path d="M 976.8348999023438 13.50099563598633 L 976.8348999023438 14.56967926025391 L 987.9473876953125 21.85061454772949 L 990.750244140625 23.68706512451172 L 987.3993530273438 23.68706512451172 L 976.8348999023438 23.68706512451172 L 976.8348999023438 28.96331405639648 L 987.3993530273438 28.96331405639648 L 990.750244140625 28.96331405639648 L 987.9473876953125 30.79976463317871 L 976.8348999023438 38.0806999206543 L 976.8348999023438 39.15048599243164 L 979.5181274414063 39.15048599243164 L 992.7495727539063 30.48167419433594 L 994.297607421875 29.46745491027832 L 994.297607421875 31.31813430786133 L 994.297607421875 39.15048599243164 L 999.573974609375 39.15048599243164 L 999.573974609375 31.31813430786133 L 999.573974609375 29.46746444702148 L 1001.122009277344 30.48167419433594 L 1014.353515625 39.15048599243164 L 1017.036682128906 39.15048599243164 L 1017.036682128906 38.08070373535156 L 1005.92431640625 30.79976463317871 L 1003.121459960938 28.96331405639648 L 1006.472351074219 28.96331405639648 L 1017.036682128906 28.96331405639648 L 1017.036682128906 23.68706512451172 L 1006.47119140625 23.68706512451172 L 1003.119995117188 23.68706512451172 L 1005.923156738281 21.85059547424316 L 1017.036682128906 14.56965255737305 L 1017.036682128906 13.50099563598633 L 1014.352355957031 13.50099563598633 L 1001.122009277344 22.16871452331543 L 999.573974609375 23.18287467956543 L 999.573974609375 21.33224487304688 L 999.573974609375 13.50099563598633 L 994.297607421875 13.50099563598633 L 994.297607421875 21.33224487304688 L 994.297607421875 23.18279457092285 L 992.7496337890625 22.16873550415039 L 979.5181884765625 13.50099563598633 L 976.8348999023438 13.50099563598633 M 976.5616455078125 12.50099563598633 L 979.8165283203125 12.50099563598633 L 993.297607421875 21.33224487304688 L 993.297607421875 12.50099563598633 L 1000.573974609375 12.50099563598633 L 1000.573974609375 21.33224487304688 L 1014.053955078125 12.50099563598633 L 1017.308898925781 12.50099563598633 C 1017.71044921875 12.50099563598633 1018.036682128906 12.82615280151367 1018.036682128906 13.22873306274414 L 1018.036682128906 15.11000442504883 L 1006.47119140625 22.68706512451172 L 1018.036682128906 22.68706512451172 L 1018.036682128906 29.96331405639648 L 1006.472351074219 29.96331405639648 L 1018.036682128906 37.54037475585938 L 1018.036682128906 39.42164611816406 C 1018.036682128906 39.82422637939453 1017.711486816406 40.15048599243164 1017.31005859375 40.15048599243164 L 1014.055114746094 40.15048599243164 L 1000.573974609375 31.31813430786133 L 1000.573974609375 40.15048599243164 L 993.297607421875 40.15048599243164 L 993.297607421875 31.31813430786133 L 979.8165283203125 40.15048599243164 L 976.5616455078125 40.15048599243164 C 976.1600952148438 40.15048599243164 975.8348999023438 39.82422637939453 975.8348999023438 39.42164611816406 L 975.8348999023438 37.54037475585938 L 987.3993530273438 29.96331405639648 L 975.8348999023438 29.96331405639648 L 975.8348999023438 22.68706512451172 L 987.3993530273438 22.68706512451172 L 975.8348999023438 15.11000442504883 L 975.8348999023438 13.22873306274414 C 975.8348999023438 12.82615280151367 976.1600952148438 12.50099563598633 976.5616455078125 12.50099563598633 Z" stroke="none" fill="#707070"/>
    </g>
    <g id="Groupe_42" data-name="Groupe 42">
      <g id="Tracé_139" data-name="Tracé 139" transform="translate(-975.835 -12.5)" fill="#ff4b55">
        <path d="M 998.6181030273438 39.64998245239258 L 995.2525634765625 39.64998245239258 L 995.2525634765625 28.50800132751465 L 995.2525634765625 28.00800132751465 L 994.7525634765625 28.00800132751465 L 976.3348999023438 28.00800132751465 L 976.3348999023438 24.64248085021973 L 994.7525634765625 24.64248085021973 L 995.2525634765625 24.64248085021973 L 995.2525634765625 24.14248085021973 L 995.2525634765625 13.00050067901611 L 998.6181030273438 13.00050067901611 L 998.6181030273438 24.14248085021973 L 998.6181030273438 24.64248085021973 L 999.1181030273438 24.64248085021973 L 1017.536865234375 24.64248085021973 L 1017.536865234375 28.00800132751465 L 999.1181030273438 28.00800132751465 L 998.6181030273438 28.00800132751465 L 998.6181030273438 28.50800132751465 L 998.6181030273438 39.64998245239258 Z" stroke="none"/>
        <path d="M 995.7525634765625 13.5004997253418 L 995.7525634765625 24.14248085021973 L 995.7525634765625 25.14248085021973 L 994.7525634765625 25.14248085021973 L 976.8348999023438 25.14248085021973 L 976.8348999023438 27.50800132751465 L 994.7525634765625 27.50800132751465 L 995.7525634765625 27.50800132751465 L 995.7525634765625 28.50800132751465 L 995.7525634765625 39.14998245239258 L 998.1181030273438 39.14998245239258 L 998.1181030273438 28.50800132751465 L 998.1181030273438 27.50800132751465 L 999.1181030273438 27.50800132751465 L 1017.036865234375 27.50800132751465 L 1017.036865234375 25.14248085021973 L 999.1181030273438 25.14248085021973 L 998.1181030273438 25.14248085021973 L 998.1181030273438 24.14248085021973 L 998.1181030273438 13.5004997253418 L 995.7525634765625 13.5004997253418 M 994.7525634765625 12.5004997253418 L 999.1181030273438 12.5004997253418 L 999.1181030273438 24.14248085021973 L 1018.036865234375 24.14248085021973 L 1018.036865234375 28.50800132751465 L 999.1181030273438 28.50800132751465 L 999.1181030273438 40.14998245239258 L 994.7525634765625 40.14998245239258 L 994.7525634765625 28.50800132751465 L 975.8348999023438 28.50800132751465 L 975.8348999023438 24.14248085021973 L 994.7525634765625 24.14248085021973 L 994.7525634765625 12.5004997253418 Z" stroke="none" fill="#707070"/>
      </g>
      <g id="Tracé_140" data-name="Tracé 140" transform="translate(-975.833 -10.827)" fill="#ff4b55">
        <path d="M 977.4136962890625 37.97718048095703 L 976.5772094726563 37.97718048095703 L 990.7308349609375 28.79000091552734 L 991.5673217773438 28.79000091552734 L 977.4136962890625 37.97718048095703 Z" stroke="none"/>
        <path d="M 990.582763671875 28.29000091552734 L 993.2559204101563 28.29000091552734 L 977.561767578125 38.47718048095703 L 976.5597534179688 38.47718048095703 C 976.1947631835938 38.47718048095703 975.9038696289063 38.20178985595703 975.8529663085938 37.85118865966797 L 990.582763671875 28.29000091552734 Z" stroke="none" fill="#707070"/>
      </g>
      <g id="Tracé_141" data-name="Tracé 141" transform="translate(-973.355 -10.827)" fill="#ff4b55">
        <path d="M 1014.976379394531 37.91337966918945 L 1000.921447753906 28.78999710083008 L 1001.756958007813 28.78999710083008 L 1015.056396484375 37.42156219482422 L 1015.056396484375 37.74833679199219 C 1015.056396484375 37.82016372680664 1015.023498535156 37.87619018554688 1014.976379394531 37.91337966918945 Z" stroke="none"/>
        <path d="M 999.2328491210938 28.28999710083008 L 1001.904968261719 28.28999710083008 L 1015.556396484375 37.14999771118164 L 1015.556396484375 37.74833679199219 C 1015.556396484375 38.12436676025391 1015.267822265625 38.42298889160156 1014.902770996094 38.46169662475586 L 999.2328491210938 28.28999710083008 Z" stroke="none" fill="#707070"/>
      </g>
      <g id="Tracé_142" data-name="Tracé 142" transform="translate(-975.835 -12.494)" fill="#ff4b55">
        <path d="M 990.154541015625 22.18028450012207 L 989.3181762695313 22.18028450012207 L 976.3348999023438 13.7522439956665 L 976.3348999023438 13.22195434570313 C 976.3348999023438 13.21819305419922 976.3349609375 13.21448612213135 976.3351440429688 13.21081638336182 L 990.154541015625 22.18028450012207 Z" stroke="none"/>
        <path d="M 976.258544921875 12.56500434875488 L 991.84326171875 22.68028450012207 L 989.1701049804688 22.68028450012207 L 975.8348999023438 14.02378463745117 L 975.8348999023438 13.22195434570313 C 975.8348999023438 12.92886352539063 976.0096435546875 12.68002510070801 976.258544921875 12.56500434875488 Z" stroke="none" fill="#707070"/>
      </g>
      <g id="Tracé_143" data-name="Tracé 143" transform="translate(-973.464 -12.5)" fill="#ff4b55">
        <path d="M 1000.728088378906 22.18706512451172 L 999.8916625976563 22.18706512451172 L 1014.044128417969 13.00100421905518 L 1014.879638671875 13.00100421905518 L 1000.728088378906 22.18706512451172 Z" stroke="none"/>
        <path d="M 1000.876159667969 22.68706512451172 L 998.2030029296875 22.68706512451172 L 1013.896057128906 12.50100421905518 L 1014.937927246094 12.50100421905518 C 1015.295104980469 12.50100421905518 1015.579406738281 12.7631139755249 1015.641357421875 13.10265445709229 L 1000.876159667969 22.68706512451172 Z" stroke="none" fill="#707070"/>
      </g>
    </g>
  </g>
</svg>
